<svg width="20" height="20" viewBox="0 0 25 25" fill="none" xmlns="http://www.w3.org/2000/svg">
<path d="M7.48918 14.3777L6.86263 16.7167L4.57258 16.7651C3.8882 15.4957 3.5 14.0434 3.5 12.5C3.5 11.0076 3.86295 9.60025 4.50631 8.36102H4.5068L6.54559 8.7348L7.4387 10.7614C7.25177 11.3063 7.14989 11.8913 7.14989 12.5C7.14996 13.1607 7.26963 13.7937 7.48918 14.3777Z" fill="#FBBB00"/>
<path d="M21.3427 10.8187C21.4461 11.3631 21.5 11.9253 21.5 12.5C21.5 13.1443 21.4323 13.7728 21.3032 14.3791C20.8651 16.4422 19.7203 18.2437 18.1344 19.5185L18.1339 19.518L15.566 19.387L15.2025 17.1182C16.2548 16.501 17.0772 15.5353 17.5104 14.3791H12.6979V10.8187H17.5806H21.3427Z" fill="#518EF8"/>
<path d="M18.1339 19.5181L18.1344 19.5185C16.5921 20.7583 14.6328 21.5 12.5 21.5C9.0726 21.5 6.09272 19.5843 4.5726 16.7651L7.4892 14.3777C8.24924 16.4061 10.206 17.8501 12.5 17.8501C13.486 17.8501 14.4098 17.5835 15.2025 17.1182L18.1339 19.5181Z" fill="#28B446"/>
<path d="M18.2446 5.57197L15.329 7.95894C14.5086 7.44615 13.5389 7.14992 12.4999 7.14992C10.154 7.14992 8.16063 8.66013 7.43866 10.7613L4.50673 8.36098H4.50624C6.00411 5.47307 9.02157 3.5 12.4999 3.5C14.6837 3.5 16.6859 4.27787 18.2446 5.57197Z" fill="#F14336"/>
</svg>
