<?xml version="1.0" encoding="UTF-8"?>
<svg width="57px" height="48px" viewBox="0 0 57 48" version="1.1" xmlns="http://www.w3.org/2000/svg" xmlns:xlink="http://www.w3.org/1999/xlink">
    <defs>
        <rect id="path-1" x="1.66634006" y="1.73365015" width="34.7359739" height="34.8149492" rx="2.25"></rect>
        <mask id="mask-2" maskContentUnits="userSpaceOnUse" maskUnits="objectBoundingBox" x="0" y="0" width="34.7359739" height="34.8149492" fill="white">
            <use xlink:href="#path-1"></use>
        </mask>
    </defs>
    <g id="Board" stroke="none" stroke-width="1" fill="none" fill-rule="evenodd">
        <g id="2.5-team-search-empty-members" transform="translate(-826.000000, -495.000000)">
            <g id="illustration_missing" transform="translate(826.000000, 495.000000)">
                <g id="avatar" transform="translate(26.459382, 27.459382) scale(-1, 1) rotate(-8.000000) translate(-26.459382, -27.459382) translate(7.459382, 8.459382)">
                    <use id="Rectangle-Copy" stroke="#C4C9CC" mask="url(#mask-2)" stroke-width="2" stroke-dasharray="3,3" transform="translate(19.034327, 19.141125) rotate(5.000000) translate(-19.034327, -19.141125) " xlink:href="#path-1"></use>
                    <g id="Group-14" transform="translate(18.286709, 21.769593) rotate(-4.000000) translate(-18.286709, -21.769593) translate(6.786709, 14.269593)" fill="#C4C9CC">
                        <path d="M4.53056089,10.032065 C5.23946772,9.92824303 7.1644275,11.0329381 10.2426802,11.5892698 C13.320933,12.1456015 15.0751877,11.5719376 15.7397935,12.0085552 C16.4043994,12.4451728 16.1282756,13.5883904 15.3956195,13.9604634 C14.6629633,14.3325365 11.5110812,14.1952114 9.67373365,13.9017455 C8.10716025,13.6255163 4.76314711,12.6612259 4.13566596,12.0475019 C3.50818482,11.4337778 3.82165405,10.135887 4.53056089,10.032065 Z M21.9861813,5.00975936 C22.1330157,6.404247 21.0929382,7.65167144 19.6635963,7.79425556 C18.2342545,7.9375862 16.9571004,6.92232753 16.810266,5.52709337 C16.6641962,4.13185921 17.703509,2.88518129 19.1336156,2.74259716 C20.5621927,2.59926653 21.8401115,3.6145252 21.9861813,5.00975936 Z M6.16775463,2.48856287 C6.31382434,3.88379703 5.27451156,5.13047496 3.8451697,5.27305908 C2.41582784,5.41638972 1.13867379,4.40187756 0.991839315,3.00589689 C0.8457696,1.61066273 1.88508238,0.3639848 3.31442424,0.221400678 C4.74376611,0.0780700424 6.02168491,1.09332871 6.16775463,2.48856287 Z" id="Combined-Shape"></path>
                    </g>
                </g>
                <g id="stars" fill="#EDEFF0">
                    <path d="M56.1217391,44.3171107 L56.1217391,44.7365958 L54.3328494,45.260242 L53.8093181,47.0537065 L53.3906819,47.0537065 L52.8680956,45.260242 L51.0782609,44.7365958 L51.0782609,44.3171107 L52.8680956,43.7934645 L53.3906819,42 L53.8093181,42 L54.3328494,43.7934645 L56.1217391,44.3171107 Z M9.12173913,2.77864917 L9.12173913,3.19813427 L7.33284943,3.72178046 L6.80931805,5.51524498 L6.39068195,5.51524498 L5.86809558,3.72178046 L4.07826087,3.19813427 L4.07826087,2.77864917 L5.86809558,2.25500298 L6.39068195,0.461538462 L6.80931805,0.461538462 L7.33284943,2.25500298 L9.12173913,2.77864917 Z M52.2624232,37.043956 L51.9275362,37.043956 L51.5106087,35.60883 L50.0782609,35.1897463 L50.0782609,34.8555573 L51.5106087,34.435126 L51.9275362,33 L52.2624232,33 L52.6806957,34.435126 L54.1130435,34.8555573 L54.1130435,35.1897463 L52.6806957,35.60883 L52.2624232,37.043956 Z M2.26242319,14.5054945 L1.92753623,14.5054945 L1.5106087,13.0703685 L0.0782608696,12.6512847 L0.0782608696,12.3170958 L1.5106087,11.8966645 L1.92753623,10.4615385 L2.26242319,10.4615385 L2.68069565,11.8966645 L4.11304348,12.3170958 L4.11304348,12.6512847 L2.68069565,13.0703685 L2.26242319,14.5054945 Z" id="Combined-Shape"></path>
                </g>
            </g>
        </g>
    </g>
</svg>